<svg width="90" height="27" viewBox="0 0 90 27" fill="none" xmlns="http://www.w3.org/2000/svg">
<path d="M13.4469 3.06539C12.1662 1.87011 10.4373 1.12306 8.47366 1.12306C4.29019 1.12306 1.04587 4.5168 1.04587 8.67893C1.04587 12.8624 4.29019 16.2134 8.47366 16.2134C12.6785 16.2134 15.4319 13.8015 15.4319 8.61489H8.98593V10.3438H13.1694C13.0627 12.7984 11.099 14.3138 8.47366 14.3138C5.40009 14.3138 3.03088 11.8165 3.03088 8.67893C3.03088 5.56267 5.40009 3.0227 8.47366 3.0227C9.8397 3.0227 11.0777 3.55631 12.0168 4.38873L13.4469 3.06539ZM22.3017 16.2134C25.1405 16.2134 27.5311 14.1431 27.5311 10.9841C27.5311 7.82516 25.1405 5.8188 22.3017 5.8188C19.4629 5.8188 17.0937 7.82516 17.0937 10.9841C17.0937 14.1431 19.4629 16.2134 22.3017 16.2134ZM22.3017 14.3351C20.4875 14.3351 19.0147 13.0332 19.0147 10.9841C19.0147 8.97774 20.4875 7.71843 22.3017 7.71843C24.0733 7.71843 25.5887 8.97774 25.5887 10.9841C25.5887 13.0332 24.0733 14.3351 22.3017 14.3351ZM34.6622 16.2134C37.501 16.2134 39.8916 14.1431 39.8916 10.9841C39.8916 7.82516 37.501 5.8188 34.6622 5.8188C31.8234 5.8188 29.4542 7.82516 29.4542 10.9841C29.4542 14.1431 31.8234 16.2134 34.6622 16.2134ZM34.6622 14.3351C32.848 14.3351 31.3752 13.0332 31.3752 10.9841C31.3752 8.97774 32.848 7.71843 34.6622 7.71843C36.4338 7.71843 37.9492 8.97774 37.9492 10.9841C37.9492 13.0332 36.4338 14.3351 34.6622 14.3351ZM50.3524 16H52.2947V0.610802H50.3524V7.52634C49.6907 6.39509 48.3033 5.8188 46.8306 5.8188C44.0985 5.8188 41.8147 7.82516 41.8147 11.0054C41.8147 14.1644 44.1199 16.2134 46.8519 16.2134C48.2393 16.2134 49.6907 15.5731 50.3524 14.4632V16ZM50.3311 10.9841C50.3311 13.0972 48.7943 14.3138 47.0227 14.3138C45.2298 14.3138 43.7997 12.9478 43.7997 10.9841C43.7997 9.02043 45.2298 7.71843 47.0227 7.71843C48.6449 7.71843 50.3311 8.84968 50.3311 10.9841ZM57.0396 17.4301C56.7835 17.5368 55.6523 18.1558 55.4175 18.2838C56.378 20.0554 58.0642 20.9732 59.9211 20.9732C63.2295 20.9732 65.3639 19.1803 65.3639 14.4846V6.03224H63.4429V7.59037C62.7599 6.45912 61.3298 5.8188 59.9425 5.8188C57.2104 5.8188 54.8839 7.88919 54.8839 11.0481C54.8839 14.2071 57.2104 16.2134 59.9425 16.2134C61.3512 16.2134 62.8239 15.5731 63.4429 14.3778C63.4429 14.4632 63.4643 14.5272 63.4643 14.6126C63.4643 17.921 62.0769 19.1376 59.9211 19.1376C58.8112 19.1376 57.6373 18.54 57.0396 17.4301ZM63.4216 11.0268C63.4216 13.1612 61.7354 14.3138 60.1132 14.3138C58.3203 14.3138 56.8689 13.0758 56.8689 11.0268C56.8689 9.08447 58.3203 7.71843 60.1132 7.71843C61.8848 7.71843 63.4216 8.89237 63.4216 11.0268ZM75.4027 11.411C75.4027 13.5454 73.994 14.3138 72.5853 14.3138C71.2192 14.3138 70.4081 13.3533 70.4081 11.6671V6.03224H68.4658V11.7952C68.4445 14.6126 69.8105 16.2134 72.3078 16.2134C73.3963 16.2134 74.7837 15.7012 75.4027 14.5059V16H77.345V6.03224H75.4027V11.411ZM83.2686 20.8451L89.4584 6.03224H87.388L84.3998 13.2466L81.4116 6.03224H79.3412L83.3326 15.7012L81.2408 20.8451H83.2686Z" fill="black"/>
<path d="M15.8824 17.8676L17.0041 18.8211C23.9062 24.6879 34.1562 24.2731 40.5616 17.8676V17.8676" stroke="url(#paint0_linear_10_3727)" stroke-width="2.66803" stroke-linecap="round" stroke-linejoin="round"/>
<defs>
<linearGradient id="paint0_linear_10_3727" x1="15.7565" y1="17.7313" x2="45.5359" y2="23.6872" gradientUnits="userSpaceOnUse">
<stop stop-color="#0C59EC"/>
<stop offset="0.482292" stop-color="#6955C6"/>
<stop offset="1" stop-color="#E53969"/>
</linearGradient>
</defs>
</svg>
